<svg xmlns="http://www.w3.org/2000/svg" width="32" height="37">
    <path fill="#7C74A6" fill-rule="evenodd" d="M28.001 30H22v3.002C22 35.21 20.21 37 18.002 37H3.998C1.789 37 .001 35.21.001 33.002V10.998C.001 8.79 1.789 7 3.998 7H10V3.998C10 1.79 11.79 0 13.998 0h14.003c2.21 0 3.998 1.79 3.998 3.998v22.004c0 2.208-1.788 3.998-3.998 3.998zM3.998 9c-1.103 0-1.997.897-1.997 1.998v22.004c0 1.102.894 1.998 1.997 1.998h14.004C19.104 35 20 34.104 20 33.002V30h-6.002C11.79 30 10 28.21 10 26.002V9H3.998zM20 28V10.998C20 9.897 19.104 9 18.002 9h-6.003v17.002c0 1.102.898 1.998 1.999 1.998H20zm9.999-24.002c0-1.102-.895-1.998-1.998-1.998H13.998c-1.101 0-1.999.896-1.999 1.998V7h6.003C20.21 7 22 8.79 22 10.998V28h6.001c1.103 0 1.998-.896 1.998-1.998V3.998z"/>
</svg>
