<svg xmlns="http://www.w3.org/2000/svg" width="31" height="32">
    <path fill="#7C74A6" fill-rule="evenodd" d="M28.375 32H2.5C1.119 32 0 30.881 0 29.5v-2.625c0-1.381 1.119-2.5 2.5-2.5h25.875c1.381 0 2.5 1.119 2.5 2.5V29.5c0 1.381-1.119 2.5-2.5 2.5zm0-12.187H2.5c-1.381 0-2.5-1.12-2.5-2.5v-2.626c0-1.38 1.119-2.5 2.5-2.5h25.875c1.381 0 2.5 1.12 2.5 2.5v2.626c0 1.38-1.119 2.5-2.5 2.5zm0-12.188H2.5c-1.381 0-2.5-1.119-2.5-2.5V2.5C0 1.119 1.119 0 2.5 0h25.875c1.381 0 2.5 1.119 2.5 2.5v2.625c0 1.381-1.119 2.5-2.5 2.5z" opacity=".502"/>
</svg>
