<svg xmlns="http://www.w3.org/2000/svg" width="47" height="45">
    <path fill="none" fill-rule="evenodd" stroke="#7C74A6" stroke-linecap="round" stroke-linejoin="round" stroke-width="4" d="M41.485 38.028l-7.522-7.33c2.548-3.027 4.084-6.906 4.084-11.134C38.047 9.868 29.974 2 20.024 2 10.065 2 1.999 9.868 1.999 19.564c0 9.697 8.066 17.565 18.025 17.565 4.339 0 8.309-1.489 11.416-3.972l7.523 7.321c.699.681 1.824.681 2.522 0 .699-.672.699-1.778 0-2.45zm-21.461-4.395c-7.969 0-14.445-6.311-14.445-14.069 0-7.757 6.476-14.077 14.445-14.077 7.961 0 14.445 6.32 14.445 14.077 0 7.758-6.484 14.069-14.445 14.069z"/>
</svg>
