<svg xmlns="http://www.w3.org/2000/svg" width="49" height="55">
    <path fill="#747AED" fill-rule="evenodd" d="M47.51 38.701L31.007 53.796c-.851.777-1.953 1.204-3.105 1.204H7.657C3.435 55 0 51.573 0 47.361V7.639C0 3.427 3.435 0 7.657 0h33.687c4.221 0 7.655 3.427 7.655 7.639v27.683c0 1.282-.541 2.513-1.489 3.379zm-16.886 11.3l12.909-11.806h-8.315c-2.532 0-4.594 2.056-4.594 4.583v7.223zM45.937 7.639c0-2.527-2.06-4.583-4.593-4.583H7.657c-2.533 0-4.595 2.056-4.595 4.583v39.722c0 2.528 2.062 4.583 4.595 4.583h19.905v-9.166c0-4.212 3.436-7.639 7.656-7.639h10.719v-27.5zm-36.75 13.75h30.626v3.055H9.187v-3.055zm0-10.695h24.501v3.055H9.187v-3.055zm18.375 24.445H9.187v-3.055h18.375v3.055zm-6.124 10.694H9.187v-3.055h12.251v3.055z"/>
</svg>
