<svg xmlns="http://www.w3.org/2000/svg" width="31" height="31">
    <path fill="#2A2E4C" fill-rule="evenodd" d="M31 6.028h-3.445v20.666c0 2.374-1.931 4.306-4.304 4.306H7.75c-2.374 0-4.305-1.932-4.305-4.306V6.028H0V4.305h9.472V2.584C9.472 1.158 10.632 0 12.055 0h6.89c1.424 0 2.583 1.158 2.583 2.584v1.721H31v1.723zM19.806 2.584c0-.475-.386-.862-.861-.862h-6.89c-.475 0-.861.387-.861.862v1.721h8.612V2.584zm6.027 3.444H5.167v20.666c0 1.425 1.159 2.584 2.583 2.584h15.501c1.423 0 2.582-1.159 2.582-2.584V6.028z"/>
</svg>
