<svg xmlns="http://www.w3.org/2000/svg" width="20" height="27">
    <path fill="none" fill-rule="evenodd" stroke="#60506D" stroke-width="2" d="M16.5 14.999h-14c-.829 0-1.5-.671-1.5-1.499 0-.829.671-1.499 1.5-1.499h14c.829 0 1.5.67 1.5 1.499 0 .828-.671 1.499-1.5 1.499zM16.5 4h-14C1.671 4 1 3.328 1 2.5 1 1.671 1.671 1 2.5 1h14c.829 0 1.5.671 1.5 1.5 0 .828-.671 1.5-1.5 1.5zm-14 18h14c.829 0 1.5.671 1.5 1.501 0 .827-.671 1.499-1.5 1.499h-14c-.829 0-1.5-.672-1.5-1.499C1 22.671 1.671 22 2.5 22z"/>
</svg>
