<svg xmlns="http://www.w3.org/2000/svg" width="35" height="35">
    <path fill-rule="evenodd" d="M33.566 10.716L12.69 31.589c-.129.131-.294.228-.472.278L1.394 34.959c-.098.029-.198.042-.299.042-.287 0-.565-.112-.774-.32-.282-.281-.386-.692-.278-1.073l3.091-10.823c.052-.178.149-.341.279-.471L24.289 1.44c1.918-1.918 5.042-1.917 6.957 0l2.32 2.32c.931.928 1.442 2.164 1.442 3.479 0 1.313-.511 2.55-1.442 3.477zm-30.879 21.6l8.658-2.474 16.809-16.807-6.185-6.184-16.81 16.808-2.472 8.657zM32.019 5.305L29.7 2.987c-1.064-1.065-2.801-1.067-3.865-.001l-2.32 2.32 6.184 6.184 2.32-2.32c.518-.515.802-1.202.802-1.931 0-.731-.284-1.417-.802-1.934z"/>
</svg>
