<svg xmlns="http://www.w3.org/2000/svg" width="32" height="33">
    <path fill="#2A2E4C" fill-rule="evenodd" d="M30.628 10.393l-19.047 18.84c-.121.119-.269.205-.432.251l-9.877 2.791c-.09.026-.183.039-.275.039-.26 0-.514-.102-.705-.29-.256-.253-.353-.623-.253-.968l2.821-9.77c.047-.161.134-.307.255-.426L22.163 2.019c1.751-1.732 4.601-1.731 6.349 0l2.116 2.093c.849.839 1.315 1.954 1.315 3.141 0 1.186-.466 2.301-1.315 3.14zM2.451 29.89l7.901-2.233L25.69 12.485l-5.644-5.582L4.708 22.075 2.451 29.89zM29.217 5.507l-2.116-2.092c-.972-.962-2.556-.963-3.528-.001l-2.117 2.094 5.645 5.583 2.116-2.094c.472-.466.731-1.086.731-1.744 0-.659-.259-1.279-.731-1.746z"/>
</svg>
