<svg xmlns="http://www.w3.org/2000/svg" width="53" height="38">
    <path fill="#F59A2E" fill-rule="evenodd" d="M51.415 33.402c-.43.221-.897.33-1.361.33-.592 0-1.181-.178-1.688-.529l-10.088-7.011v4.5c0 4.03-3.302 7.308-7.361 7.308H7.361C3.302 38 0 34.722 0 30.692V7.308C0 3.279 3.302 0 7.361 0h23.556c4.059 0 7.361 3.279 7.361 7.308v4.5l10.089-7.011c.902-.625 2.074-.702 3.048-.198.978.505 1.586 1.498 1.586 2.593v23.616c0 1.095-.608 2.089-1.586 2.594zM35.333 23.385V7.308c0-2.418-1.981-4.385-4.416-4.385H7.361c-2.435 0-4.416 1.967-4.416 4.385v23.384c0 2.418 1.981 4.385 4.416 4.385h23.556c2.435 0 4.416-1.967 4.416-4.385v-7.307zM50.055 7.192l-11.777 8.184v7.248l11.777 8.184V7.192zm-38.277 8.885c-2.44 0-4.417-1.963-4.417-4.385 0-2.422 1.977-4.384 4.417-4.384 2.439 0 4.416 1.962 4.416 4.384 0 2.422-1.977 4.385-4.416 4.385z"/>
</svg>
