<svg xmlns="http://www.w3.org/2000/svg" width="55" height="55">
    <path fill="#31AD3D" fill-rule="evenodd" d="M27.498 54.999c-1.176 0-2.236-.653-2.764-1.706l-7.7-15.329L1.713 30.26C.662 29.731.009 28.671.009 27.494s.653-2.237 1.705-2.766l15.32-7.705 7.7-15.329c.528-1.052 1.588-1.706 2.764-1.706 1.176 0 2.235.654 2.764 1.706l7.7 15.329 15.321 7.705c1.051.529 1.704 1.589 1.704 2.766s-.653 2.237-1.705 2.766l-15.32 7.704-7.7 15.33c-.528 1.052-1.588 1.705-2.764 1.705zm-.005-51.924l-8.156 16.253-16.234 8.166 16.234 8.166 8.161 16.243 8.161-16.243 16.235-8.166-16.235-8.166-8.166-16.253z"/>
</svg>
