<svg xmlns="http://www.w3.org/2000/svg" width="495" height="495">
    <path fill="#FFF" fill-rule="evenodd" d="M351.982 471.932c1.93-.899 3.85-1.827 5.762-2.778L25.814 137.226c-.951 1.911-1.878 3.83-2.776 5.76l328.944 328.946zm17.189-8.852c1.81-1.023 3.608-2.07 5.397-3.142L35.031 120.402c-1.073 1.788-2.12 3.587-3.143 5.396L369.171 463.08zm31.172-20.909c1.587-1.249 3.162-2.519 4.724-3.813L56.611 89.901c-1.294 1.563-2.564 3.138-3.814 4.725l347.546 347.545zm-66.744 37.417c2.062-.764 4.118-1.552 6.165-2.373L17.755 155.205c-.822 2.046-1.61 4.103-2.374 6.165l318.218 318.218zm80.827-49.373c1.481-1.357 2.952-2.732 4.408-4.13L68.884 76.135c-1.399 1.456-2.773 2.927-4.129 4.408l349.671 349.672zm-29.155 22.926c1.696-1.139 3.38-2.301 5.054-3.485L45.313 104.644c-1.184 1.673-2.347 3.358-3.485 5.053l343.443 343.444zm-71.351 32.808c2.208-.613 4.408-1.26 6.602-1.935L10.955 174.447c-.675 2.193-1.322 4.394-1.935 6.602l304.9 304.9zm-169.695-13.453c4.852 2.227 9.762 4.288 14.72 6.183L16.29 336.023c1.895 4.959 3.956 9.868 6.183 14.72l121.752 121.753zm-42.263-24.76l-54.73-54.73c7.517 10.317 15.921 20.189 25.231 29.5 9.31 9.31 19.182 17.713 29.499 25.23zm82.739 39.196c3.711.969 7.44 1.853 11.185 2.648L5.39 299.083c.793 3.744 1.677 7.473 2.647 11.186l176.664 176.663zm60.118 8.038c2.834.03 5.667.028 8.5-.038L.037 241.65c-.067 2.833-.068 5.666-.038 8.499l244.82 244.821zm-27.901-1.861c3.169.392 6.344.715 9.522.985L.876 268.529c.27 3.178.591 6.353.984 9.522l215.058 215.058zm52.952.872c2.579-.233 5.155-.499 7.726-.813L1.8 217.372c-.313 2.572-.58 5.148-.812 7.727L269.87 493.981zm22.894-3.148c2.378-.441 4.751-.908 7.119-1.419L5.554 195.086c-.51 2.367-.977 4.741-1.417 7.12l288.627 288.627zM450.903 388.57c1.172-1.686 2.321-3.384 3.447-5.091L111.49 40.619c-1.709 1.126-3.406 2.275-5.091 3.447L450.903 388.57zm42.9-165.422c-.318-3.235-.707-6.465-1.151-9.688L281.509 2.317c-3.223-.445-6.453-.834-9.689-1.151l221.983 221.982zm-.332 51.749c.287-2.595.536-5.194.742-7.796L227.868.756c-2.603.206-5.201.454-7.796.742l273.399 273.399zm1.496-24.544c.033-2.857.032-5.715-.033-8.571L253.188.035c-2.857-.065-5.715-.066-8.573-.033l250.352 250.351zm-6.242-58.322c-.877-3.834-1.846-7.649-2.908-11.445L314.383 9.151c-3.796-1.061-7.611-2.031-11.445-2.907l185.787 185.787zm-61.174 225.268c1.387-1.469 2.754-2.947 4.097-4.441L82.11 63.321c-1.492 1.343-2.972 2.71-4.44 4.096l349.881 349.882zm49.18-263.303c-2.127-5.221-4.443-10.384-6.941-15.479L356.451 25.178c-5.095-2.497-10.257-4.814-15.478-6.94l135.758 135.758zm-69.708-95.748l29.698 29.697c-4.485-5.307-9.213-10.479-14.216-15.481-5.002-5.003-10.175-9.731-15.482-14.216zm54.038 314.44c1.058-1.803 2.091-3.616 3.099-5.439L127.719 30.809c-1.822 1.008-3.636 2.04-5.438 3.098l338.78 338.781zm9.078-16.963c.936-1.926 1.845-3.863 2.729-5.809L145.053 22.101c-1.947.884-3.883 1.793-5.809 2.73l330.895 330.894zm-30.42 47.702c1.28-1.575 2.542-3.162 3.779-4.76L96.302 51.472c-1.598 1.235-3.185 2.496-4.76 3.778l348.177 348.177zm50.208-106.033c.49-2.386.948-4.777 1.366-7.173L204.748 3.677c-2.397.418-4.787.876-7.173 1.365l292.352 292.352zm-5.205 20.835c.658-2.213 1.281-4.435 1.876-6.663L183.402 8.371c-2.226.595-4.449 1.217-6.662 1.875l307.982 307.983zm-6.663 19.377c.805-2.062 1.581-4.131 2.329-6.209L163.572 14.581c-2.078.747-4.147 1.524-6.209 2.328l320.696 320.697z" opacity=".4"/>
</svg>
