<svg xmlns="http://www.w3.org/2000/svg" width="282" height="282">
    <path fill="#2A2E4C" fill-rule="evenodd" d="M141 281.999C63.127 281.999.001 218.872.001 141 .001 63.128 63.127 0 141 0c77.873 0 140.999 63.128 140.999 141S218.873 281.999 141 281.999zM141 7C66.993 7 7 66.994 7 141s59.993 134 134 134 134-59.994 134-134S215.007 7 141 7zm49.43 184H91.569c-8.314 0-15.57-6.067-15.57-14.409v-37.917c.067-.55.275-1.073.605-1.517l19.954-36.856c.526-1.042 1.558-1.732 2.72-1.819h11.49c1.669 0 3.023 1.358 3.023 3.034 0 1.675-1.354 3.033-3.023 3.033h-9.675l-16.629 31.85h16.931c7.814-.039 14.919 4.535 18.141 11.678 2.331 4.913 7.273 8.042 12.696 8.039h17.535c5.424.003 10.366-3.126 12.697-8.039 3.222-7.143 10.327-11.717 18.141-11.678h17.233l-14.059-31.85h-12.547c-1.669 0-3.023-1.358-3.023-3.033 0-1.676 1.354-3.034 3.023-3.034h14.512c1.207.083 2.263.847 2.722 1.972l17.08 37.006c.217.377.372.787.454 1.214v37.917c0 8.342-7.255 14.409-15.57 14.409zm9.523-48.534h-19.348c-5.423-.003-10.366 3.125-12.698 8.039-3.22 7.142-10.326 11.717-18.14 11.677h-17.535c-7.812.04-14.919-4.535-18.139-11.677-2.334-4.914-7.274-8.042-12.698-8.039H82.046v34.125c0 5.005 4.535 8.342 9.523 8.342h98.861c4.988 0 9.523-3.337 9.523-8.342v-34.125zm-40.511-50.505l-15.419-15.622v56.117c0 1.675-1.353 3.033-3.023 3.033-1.669 0-3.023-1.358-3.023-3.033V76.339l-15.419 15.622c-1.205 1.081-3.027 1.081-4.233 0-1.17-1.231-1.17-3.167 0-4.399l20.559-20.779c1.205-1.081 3.027-1.081 4.232 0l20.559 20.779c1.17 1.232 1.17 3.168 0 4.399-1.23 1.017-3.005 1.017-4.233 0z"/>
</svg>
