<svg xmlns="http://www.w3.org/2000/svg" width="67" height="48">
    <path fill="#ED7478" fill-rule="evenodd" d="M64.995 42.191c-.541.279-1.132.419-1.719.419-.749 0-1.494-.226-2.133-.67l-12.754-8.856v5.685c0 5.09-4.175 9.231-9.306 9.231H9.306C4.175 48 0 43.859 0 38.769V9.231C0 4.141 4.175.001 9.306.001h29.777c5.131 0 9.306 4.14 9.306 9.23v5.685l12.755-8.857c1.14-.789 2.621-.886 3.851-.25C66.233 6.447 67 7.702 67 9.085v29.83c0 1.383-.767 2.638-2.005 3.276zM44.667 9.231c0-3.055-2.505-5.539-5.584-5.539H9.306c-3.08 0-5.584 2.484-5.584 5.539v29.538c0 3.055 2.504 5.539 5.584 5.539h29.777c3.079 0 5.584-2.484 5.584-5.539V9.231zm18.611-.146L48.389 19.422v9.155l14.889 10.338V9.085z"/>
</svg>
